<svg xmlns="http://www.w3.org/2000/svg" version="1.1" xmlns:xlink="http://www.w3.org/1999/xlink" xmlns:svgjs="http://svgjs.dev/svgjs" width="1500" height="1500" viewBox="0 0 1500 1500"><rect width="1500" height="1500" fill="#162836"></rect><g transform="matrix(0.6666666666666666,0,0,0.6666666666666666,249.85778443113782,249.85778443113765)"><svg viewBox="0 0 334 334" data-background-color="#162836" preserveAspectRatio="xMidYMid meet" height="1500" width="1500" xmlns="http://www.w3.org/2000/svg" xmlns:xlink="http://www.w3.org/1999/xlink"><g id="tight-bounds" transform="matrix(1,0,0,1,0.04749999999998522,0.04750000000001364)"><svg viewBox="0 0 333.90454557049503 333.90454557049503" height="333.90454557049503" width="333.90454557049503"><g><svg></svg></g><g><svg viewBox="0 0 333.90454557049503 333.90454557049503" height="333.90454557049503" width="333.90454557049503"><g><path d="M0 166.952c0-92.205 74.747-166.952 166.952-166.952 92.205 0 166.952 74.747 166.953 166.952 0 92.205-74.747 166.952-166.953 166.953-92.205 0-166.952-74.747-166.952-166.953zM166.952 327.867c88.871 0 160.914-72.044 160.915-160.915 0-88.871-72.044-160.914-160.915-160.914-88.871 0-160.914 72.044-160.914 160.914 0 88.871 72.044 160.914 160.914 160.915z" data-fill-palette-color="tertiary" fill="#cf7650" stroke="transparent"></path><ellipse rx="160.27418187383762" ry="160.27418187383762" cx="166.95227278524752" cy="166.95227278524752" fill="#cf7650" stroke="transparent" stroke-width="0" fill-opacity="1" data-fill-palette-color="tertiary"></ellipse></g><g transform="matrix(1,0,0,1,124.05396242204726,71.17305217166896)"><svg viewBox="0 0 85.7966207264005 191.55844122715712" height="191.55844122715712" width="85.7966207264005"><g><svg viewBox="0 0 85.7966207264005 191.55844122715712" height="191.55844122715712" width="85.7966207264005"><g><svg viewBox="0 0 213.1584412271571 475.91966198874167" height="191.55844122715712" width="85.7966207264005"><g transform="matrix(1,0,0,1,0,245.64540307388245)"><svg viewBox="0 0 213.1584412271571 230.27425891485922" height="230.27425891485922" width="213.1584412271571"><g id="textblocktransform"><svg viewBox="0 0 213.1584412271571 230.27425891485922" height="230.27425891485922" width="213.1584412271571" id="textblock"><g><svg viewBox="0 0 213.1584412271571 166.34437999889627" height="166.34437999889627" width="213.1584412271571"><g transform="matrix(1,0,0,1,0,0)"><svg width="213.1584412271571" viewBox="1.75 -35 44.85 35" height="166.34437999889627" data-palette-color="#162836"><path d="M1.75 0L11.8 0 11.8-1.95 7.85-1.95 7.85-28.85Q7.85-29.3 7.83-29.83 7.8-30.35 7.75-30.8L7.75-30.8Q8.05-30.35 8.22-30.13 8.4-29.9 8.7-29.45L8.7-29.45 24.1-9.4 39.05-28.9Q39.45-29.45 39.75-29.85 40.05-30.25 40.45-30.8L40.45-30.8Q40.4-30.2 40.38-29.83 40.35-29.45 40.35-28.85L40.35-28.85 40.35-1.95 36.55-1.95 36.55 0 46.6 0 46.6-1.95 42.4-1.95 42.4-33.05 46.45-33.05 46.45-35 41.2-35Q36.9-29.45 32.65-23.88 28.4-18.3 24.1-12.75L24.1-12.75Q20.4-17.5 15.9-23.38 11.4-29.25 7-35L7-35 1.75-35 1.75-33.05 5.8-33.05 5.8-1.95 1.75-1.95 1.75 0Z" opacity="1" transform="matrix(1,0,0,1,0,0)" fill="#162836" class="wordmark-text-0" data-fill-palette-color="quaternary" id="text-0"></path></svg></g></svg></g><g transform="matrix(1,0,0,1,0,205.61429585151572)"><svg viewBox="0 0 213.1584412271571 24.659963063343486" height="24.659963063343486" width="213.1584412271571"><g transform="matrix(1,0,0,1,0,0)"><svg width="213.1584412271571" viewBox="3.7 -36 411.66 47.6" height="24.659963063343486" data-palette-color="#162836"><path d="M7.9 0L3.7 0 3.7-35 15-35Q19.1-35 21.7-33.65 24.3-32.3 25.55-29.95 26.8-27.6 26.8-24.75L26.8-24.75Q26.8-21.45 25.03-18.8 23.25-16.15 19.5-15.05L19.5-15.05 27.15 0 22.2 0 15.1-14.45 14.8-14.45 7.9-14.45 7.9 0ZM7.9-31.45L7.9-17.75 14.7-17.75Q18.75-17.75 20.6-19.7 22.45-21.65 22.45-24.7L22.45-24.7Q22.45-27.8 20.63-29.63 18.8-31.45 14.65-31.45L14.65-31.45 7.9-31.45ZM42.75 0.6L42.75 0.6Q39.2 0.6 36.45-1.03 33.7-2.65 32.12-5.55 30.55-8.45 30.55-12.4L30.55-12.4Q30.55-16.3 32.1-19.23 33.65-22.15 36.42-23.78 39.2-25.4 42.85-25.4L42.85-25.4Q46.45-25.4 49.07-23.78 51.7-22.15 53.1-19.5 54.5-16.85 54.5-13.8L54.5-13.8Q54.5-13.25 54.47-12.7 54.45-12.15 54.45-11.45L54.45-11.45 34.7-11.45Q34.85-8.6 36.02-6.73 37.2-4.85 38.97-3.9 40.75-2.95 42.75-2.95L42.75-2.95Q45.35-2.95 47.1-4.15 48.85-5.35 49.65-7.4L49.65-7.4 53.8-7.4Q52.8-3.95 49.97-1.68 47.15 0.6 42.75 0.6ZM42.75-21.85L42.75-21.85Q39.75-21.85 37.42-20.03 35.1-18.2 34.75-14.7L34.75-14.7 50.35-14.7Q50.2-18.05 48.05-19.95 45.9-21.85 42.75-21.85ZM71.3 0.6L71.3 0.6Q67.59 0.6 64.82-1.1 62.05-2.8 60.52-5.75 59-8.7 59-12.45L59-12.45Q59-16.2 60.55-19.13 62.1-22.05 64.84-23.73 67.59-25.4 71.34-25.4L71.34-25.4Q74.4-25.4 76.75-24.15 79.09-22.9 80.4-20.65L80.4-20.65 80.4-36 84.59-36 84.59 0 80.8 0 80.4-4.1Q79.2-2.3 76.95-0.85 74.7 0.6 71.3 0.6ZM71.75-3.05L71.75-3.05Q74.25-3.05 76.17-4.23 78.09-5.4 79.17-7.5 80.25-9.6 80.25-12.4L80.25-12.4Q80.25-15.2 79.17-17.3 78.09-19.4 76.17-20.58 74.25-21.75 71.75-21.75L71.75-21.75Q69.3-21.75 67.37-20.58 65.45-19.4 64.37-17.3 63.3-15.2 63.3-12.4L63.3-12.4Q63.3-9.6 64.37-7.5 65.45-5.4 67.37-4.23 69.3-3.05 71.75-3.05ZM102.59 0.6L102.59 0.6Q99.04 0.6 96.29-1.03 93.54-2.65 91.97-5.55 90.39-8.45 90.39-12.4L90.39-12.4Q90.39-16.3 91.94-19.23 93.49-22.15 96.27-23.78 99.04-25.4 102.69-25.4L102.69-25.4Q106.29-25.4 108.92-23.78 111.54-22.15 112.94-19.5 114.34-16.85 114.34-13.8L114.34-13.8Q114.34-13.25 114.32-12.7 114.29-12.15 114.29-11.45L114.29-11.45 94.54-11.45Q94.69-8.6 95.87-6.73 97.04-4.85 98.82-3.9 100.59-2.95 102.59-2.95L102.59-2.95Q105.19-2.95 106.94-4.15 108.69-5.35 109.49-7.4L109.49-7.4 113.64-7.4Q112.64-3.95 109.82-1.68 106.99 0.6 102.59 0.6ZM102.59-21.85L102.59-21.85Q99.59-21.85 97.27-20.03 94.94-18.2 94.59-14.7L94.59-14.7 110.19-14.7Q110.04-18.05 107.89-19.95 105.74-21.85 102.59-21.85ZM125.44 0L121.24 0 121.24-21.25 117.49-21.25 117.49-24.8 121.24-24.8 121.24-29.1Q121.24-32.7 123.04-34.35 124.84-36 128.29-36L128.29-36 130.79-36 130.79-32.4 128.94-32.4Q127.04-32.4 126.24-31.63 125.44-30.85 125.44-29L125.44-29 125.44-24.8 131.54-24.8 131.54-21.25 125.44-21.25 125.44 0ZM139.09-30.3L139.09-30.3Q137.84-30.3 137.01-31.13 136.19-31.95 136.19-33.2L136.19-33.2Q136.19-34.4 137.01-35.2 137.84-36 139.09-36L139.09-36Q140.29-36 141.14-35.2 141.99-34.4 141.99-33.2L141.99-33.2Q141.99-31.95 141.14-31.13 140.29-30.3 139.09-30.3ZM141.19 0L136.99 0 136.99-24.8 141.19-24.8 141.19 0ZM152.69 0L148.48 0 148.48-24.8 152.28-24.8 152.53-20.35Q153.73-22.7 155.98-24.05 158.23-25.4 161.09-25.4L161.09-25.4Q165.49-25.4 168.11-22.73 170.74-20.05 170.74-14.5L170.74-14.5 170.74 0 166.53 0 166.53-14.05Q166.53-21.8 160.13-21.8L160.13-21.8Q156.94-21.8 154.81-19.48 152.69-17.15 152.69-12.85L152.69-12.85 152.69 0ZM179.63-30.3L179.63-30.3Q178.38-30.3 177.56-31.13 176.73-31.95 176.73-33.2L176.73-33.2Q176.73-34.4 177.56-35.2 178.38-36 179.63-36L179.63-36Q180.83-36 181.68-35.2 182.53-34.4 182.53-33.2L182.53-33.2Q182.53-31.95 181.68-31.13 180.83-30.3 179.63-30.3ZM181.73 0L177.53 0 177.53-24.8 181.73-24.8 181.73 0ZM193.23 0L189.03 0 189.03-24.8 192.83-24.8 193.08-20.35Q194.28-22.7 196.53-24.05 198.78-25.4 201.63-25.4L201.63-25.4Q206.03-25.4 208.65-22.73 211.28-20.05 211.28-14.5L211.28-14.5 211.28 0 207.08 0 207.08-14.05Q207.08-21.8 200.68-21.8L200.68-21.8Q197.48-21.8 195.35-19.48 193.23-17.15 193.23-12.85L193.23-12.85 193.23 0ZM227.43-7.8L227.43-7.8Q225.33-7.8 223.58-8.35L223.58-8.35 221.08-6Q221.63-5.6 222.45-5.33 223.28-5.05 224.83-4.83 226.38-4.6 229.18-4.35L229.18-4.35Q234.18-4 236.33-2.05 238.48-0.1 238.48 3.05L238.48 3.05Q238.48 5.2 237.3 7.15 236.13 9.1 233.7 10.35 231.28 11.6 227.48 11.6L227.48 11.6Q224.13 11.6 221.53 10.73 218.93 9.85 217.48 8.08 216.03 6.3 216.03 3.6L216.03 3.6Q216.03 2.2 216.78 0.58 217.53-1.05 219.58-2.5L219.58-2.5Q218.48-2.95 217.7-3.48 216.93-4 216.28-4.65L216.28-4.65 216.28-5.8 220.53-10Q217.58-12.5 217.58-16.6L217.58-16.6Q217.58-19.05 218.73-21.05 219.88-23.05 222.08-24.23 224.28-25.4 227.43-25.4L227.43-25.4Q229.58-25.4 231.33-24.8L231.33-24.8 240.48-24.8 240.48-21.65 235.83-21.45Q237.28-19.35 237.28-16.6L237.28-16.6Q237.28-14.15 236.1-12.15 234.93-10.15 232.75-8.97 230.58-7.8 227.43-7.8ZM227.43-11.25L227.43-11.25Q230.08-11.25 231.65-12.63 233.23-14 233.23-16.6L233.23-16.6Q233.23-19.15 231.65-20.53 230.08-21.9 227.43-21.9L227.43-21.9Q224.73-21.9 223.15-20.53 221.58-19.15 221.58-16.6L221.58-16.6Q221.58-14 223.15-12.63 224.73-11.25 227.43-11.25ZM220.13 3.2L220.13 3.2Q220.13 5.7 222.23 6.93 224.33 8.15 227.48 8.15L227.48 8.15Q230.58 8.15 232.45 6.8 234.33 5.45 234.33 3.2L234.33 3.2Q234.33 1.6 233.03 0.43 231.73-0.75 228.23-0.95L228.23-0.95Q225.48-1.15 223.48-1.45L223.48-1.45Q221.43-0.35 220.78 0.93 220.13 2.2 220.13 3.2ZM271.42 0L258.72 0 258.72-35 271.02-35Q274.72-35 277.15-33.83 279.57-32.65 280.77-30.63 281.97-28.6 281.97-26.1L281.97-26.1Q281.97-22.7 280.15-20.75 278.32-18.8 275.77-18.05L275.77-18.05Q277.72-17.7 279.32-16.5 280.92-15.3 281.85-13.5 282.77-11.7 282.77-9.55L282.77-9.55Q282.77-6.9 281.47-4.73 280.17-2.55 277.62-1.28 275.07 0 271.42 0L271.42 0ZM262.92-31.5L262.92-19.7 270.72-19.7Q274.07-19.7 275.87-21.28 277.67-22.85 277.67-25.65L277.67-25.65Q277.67-28.3 275.9-29.9 274.12-31.5 270.57-31.5L270.57-31.5 262.92-31.5ZM262.92-16.35L262.92-3.5 270.97-3.5Q274.57-3.5 276.52-5.18 278.47-6.85 278.47-9.85L278.47-9.85Q278.47-12.8 276.42-14.58 274.37-16.35 270.87-16.35L270.87-16.35 262.92-16.35ZM299.72 0.6L299.72 0.6Q296.17 0.6 293.42-1.03 290.67-2.65 289.1-5.55 287.52-8.45 287.52-12.4L287.52-12.4Q287.52-16.3 289.07-19.23 290.62-22.15 293.39-23.78 296.17-25.4 299.82-25.4L299.82-25.4Q303.42-25.4 306.05-23.78 308.67-22.15 310.07-19.5 311.47-16.85 311.47-13.8L311.47-13.8Q311.47-13.25 311.44-12.7 311.42-12.15 311.42-11.45L311.42-11.45 291.67-11.45Q291.82-8.6 293-6.73 294.17-4.85 295.94-3.9 297.72-2.95 299.72-2.95L299.72-2.95Q302.32-2.95 304.07-4.15 305.82-5.35 306.62-7.4L306.62-7.4 310.77-7.4Q309.77-3.95 306.94-1.68 304.12 0.6 299.72 0.6ZM299.72-21.85L299.72-21.85Q296.72-21.85 294.39-20.03 292.07-18.2 291.72-14.7L291.72-14.7 307.32-14.7Q307.17-18.05 305.02-19.95 302.87-21.85 299.72-21.85ZM325.27 0.6L325.27 0.6Q322.17 0.6 320.12-0.45 318.07-1.5 317.07-3.25 316.07-5 316.07-7.05L316.07-7.05Q316.07-10.85 318.97-12.9 321.87-14.95 326.87-14.95L326.87-14.95 333.57-14.95 333.57-15.25Q333.57-18.5 331.87-20.18 330.17-21.85 327.32-21.85L327.32-21.85Q324.87-21.85 323.09-20.63 321.32-19.4 320.87-17.05L320.87-17.05 316.57-17.05Q316.82-19.75 318.39-21.6 319.97-23.45 322.32-24.43 324.67-25.4 327.32-25.4L327.32-25.4Q332.52-25.4 335.14-22.63 337.77-19.85 337.77-15.25L337.77-15.25 337.77 0 334.02 0 333.77-4.45Q332.72-2.35 330.69-0.88 328.67 0.6 325.27 0.6ZM325.92-2.95L325.92-2.95Q328.32-2.95 330.04-4.2 331.77-5.45 332.67-7.45 333.57-9.45 333.57-11.65L333.57-11.65 333.57-11.7 327.22-11.7Q323.52-11.7 321.99-10.43 320.47-9.15 320.47-7.25L320.47-7.25Q320.47-5.3 321.89-4.13 323.32-2.95 325.92-2.95ZM353.12 0.6L353.12 0.6Q348.72 0.6 346.12-2.08 343.51-4.75 343.51-10.3L343.51-10.3 343.51-24.8 347.72-24.8 347.72-10.75Q347.72-3 354.06-3L354.06-3Q357.31-3 359.44-5.33 361.56-7.65 361.56-11.95L361.56-11.95 361.56-24.8 365.76-24.8 365.76 0 361.97 0 361.67-4.45Q360.51-2.1 358.24-0.75 355.97 0.6 353.12 0.6ZM386.26 0L382.46 0Q379.06 0 377.11-1.65 375.16-3.3 375.16-7.6L375.16-7.6 375.16-21.25 370.86-21.25 370.86-24.8 375.16-24.8 375.71-30.75 379.36-30.75 379.36-24.8 386.66-24.8 386.66-21.25 379.36-21.25 379.36-7.6Q379.36-5.25 380.31-4.42 381.26-3.6 383.66-3.6L383.66-3.6 386.26-3.6 386.26 0ZM399.11 11L394.71 11 400.86-2.4 399.41-2.4 389.56-24.8 394.11-24.8 402.31-5.5 411.01-24.8 415.36-24.8 399.11 11Z" opacity="1" transform="matrix(1,0,0,1,0,0)" fill="#162836" class="slogan-text-1" data-fill-palette-color="quaternary" id="text-1"></path></svg></g></svg></g></svg></g></svg></g><g transform="matrix(1,0,0,1,40.713262274387006,0)"><svg viewBox="0 0 131.7319166783831 206.375487221263" height="206.375487221263" width="131.7319166783831"><g><svg xmlns="http://www.w3.org/2000/svg" xmlns:xlink="http://www.w3.org/1999/xlink" version="1.1" x="0" y="0" viewBox="10.997704243747236 2.4969177999999985 30.004591412505526 47.00616469999999" enable-background="new 0 0 52 52" xml:space="preserve" height="206.375487221263" width="131.7319166783831" class="icon-icon-0" data-fill-palette-color="quaternary" id="icon-0"><g fill="#162836" data-fill-palette-color="quaternary"><path d="M36.015 17.267c3.75-1.96 5.4-3.71 4.9-5.24-0.55-1.68-3.23-1.68-4.11-1.68-1.11 0-2.45 0.12-3.93 0.35 1.31-4.6 1.16-7.28-0.44-7.99-0.24-0.1-0.49-0.15-0.75-0.15-1.78 0-3.92 2.55-5.64 5.13-1.7-2.61-3.83-5.19-5.61-5.19-0.25 0-0.5 0.05-0.73 0.15-1.49 0.64-1.74 3.02-0.75 7.08-4.06-0.99-6.55-0.81-7.23 0.66-0.67 1.46 0.76 3.39 4.26 5.75-3.75 1.96-5.4 3.72-4.9 5.25 0.55 1.68 3.23 1.68 4.11 1.68 1.11 0 2.45-0.12 3.93-0.35-1.31 4.59-1.16 7.27 0.45 7.98 0.23 0.1 0.48 0.16 0.74 0.16 1.452 0 3.15-1.704 4.655-3.732l0.016 11.95c-1.366-1.688-3.447-3.056-6.411-2.871l0.122 1.996c4.61-0.289 6.07 4.395 6.295 5.243l0.008 6.06 2-0.003-0.03-22.31c1.485 2.027 3.155 3.717 4.595 3.717 0.26 0 0.5-0.05 0.73-0.15 1.49-0.64 1.74-3.02 0.75-7.08 1.7 0.42 3.16 0.63 4.29 0.63 1.55 0 2.54-0.43 2.94-1.29C40.945 21.557 39.515 19.627 36.015 17.267zM30.725 18.807c-0.84 1.82-2.69 3-4.73 3-0.73 0-1.45-0.15-2.12-0.45-1.28-0.56-2.25-1.59-2.74-2.88-0.48-1.26-0.43-2.64 0.14-3.88 0.84-1.82 2.69-2.99 4.73-2.99 0.73 0 1.45 0.15 2.12 0.44 1.28 0.57 2.25 1.59 2.74 2.88C31.345 16.197 31.295 17.577 30.725 18.807z" fill="#162836" data-fill-palette-color="quaternary"></path></g></svg></g></svg></g><g></g></svg></g></svg></g></svg></g></svg></g><defs></defs></svg><rect width="333.90454557049503" height="333.90454557049503" fill="none" stroke="none" visibility="hidden"></rect></g></svg></g></svg>